<svg xml:space="preserve" viewBox="0 0 215.4 215.4" xmlns="http://www.w3.org/2000/svg"><g fill="#3c3c3c"><path d="M65.7 102h4.2l-5.1 24.1h-4.2zM67.9 91.3h4.3L71 96.8h-4.2z"/></g><path fill="#3c3c3c" d="M78.7 91.3H83l-7.3 34.8h-4.3zM106.6 111.7c-.1.3-.2.7-.3 1.2-.2.5-.3 1-.5 1.5l-17.9.5c-.3 1.3-.5 2.9-.4 3.8.1.9.4 1.7.9 2.3.5.6 1.3 1.1 2.3 1.4 1 .3 2.2.5 3.8.5 1.5 0 2.9 0 4.4-.1 1.6-.1 3-.2 4.1-.6l-.7 3.2c-.5.1-.7.2-1.4.3-.7.1-1.5.2-2.3.3-.8.1-1.6.1-2.6.1h-2.8c-1.9 0-3.6-.2-5-.6-1.4-.4-2.6-1-3.4-2-.8-.9-1.4-2.2-1.6-3.7-.2-1.5 0-3.5.5-5.8s1.2-4.2 2-5.8c.9-1.5 1.9-2.8 3.1-3.7 1.2-.9 2.6-1.6 4.2-2 1.6-.4 3.3-.6 5.2-.6 2.2 0 4 .3 5.2.9 1.2.6 2.1 1.3 2.7 2.3.5.9.8 2 .8 3.1.1 1.3 0 2.4-.3 3.5zm-4.1.1c.2-.9.3-1.7.4-2.6 0-.8-.1-1.5-.4-2.1-.3-.6-.8-1.1-1.6-1.5-.8-.4-1.9-.5-3.3-.5-1.5 0-2.8.2-3.8.5s-1.9.8-2.6 1.5c-.7.7-1.3 1.5-1.7 2.4-.4.9-.7 1.5-1 2.6l14-.3zM126.9 114.5c-.5-.5-1.3-1-2.3-1.3-1-.4-2.2-.7-3.6-1-1-.2-1.8-.4-2.4-.6-.6-.2-1.1-.4-1.4-.7-.3-.3-.5-.6-.5-1-.1-.4 0-.9.1-1.5.3-1.3.9-2.2 2-2.7 1-.5 2.5-.7 4.3-.7 1.2 0 2.4.1 3.4.3 1 .2 1.8.4 2.5.6l.7-3.2c-.6-.2-1.3-.3-2.3-.4-1.2-.1-2.5-.2-3.7-.2-3.1 0-5.6.6-7.4 1.7-1.8 1.2-2.9 2.7-3.3 4.6-.2 1-.3 1.8-.2 2.5.1.7.3 1.3.8 1.9.4.5 1.1 1 1.9 1.3.9.4 2 .7 3.4 1 1.2.3 2.2.5 2.9.7.7.2 1.2.5 1.6.8.4.3.6.7.6 1.1 0 .4 0 1-.2 1.7-.3 1.4-1 2.3-2.1 2.8s-2.7.8-4.7.8c-.6 0-1.2 0-1.9-.1-.7 0-1.4-.1-2-.2-.7-.1-1.3-.2-1.9-.3-.6-.1-1.1-.2-1.6-.4l-.7 3.2c.3.1.8.2 1.4.3.6.1 1.2.2 1.9.2.7.1 1.4.1 2.1.2.7 0 1.4.1 2.1.1 3.2 0 5.8-.5 7.8-1.6 1.9-1.1 3.2-2.8 3.7-5.1.2-1.1.3-2.1.2-2.9-.3-.7-.6-1.4-1.2-1.9zM136.7 102h4.2l-5 24.1h-4.2z"/><path fill="#4696f5" d="M139 91.3h4.2l-1.2 5.5h-4.2z"/><path d="m165.5 102-.8 3.6c-1.4-2.2-3.8-3.6-6.9-3.6h-.8c-2.2 0-4.1.3-5.6 1s-2.8 1.6-3.9 2.7-1.9 2.5-2.6 4c-.6 1.5-1.1 3.2-1.5 4.9-.4 1.9-.5 2.5-.5 4s.3 2.9.8 4c.6 1.1 1.5 2 2.8 2.6 1.3.6 3 .8 5.2.8 2.5 0 4.5-.4 6-1.2.2-.1.3-.2.5-.3l.7-3.4c-.5.4-1.1.7-1.8.9-1.1.4-2.5.6-4.1.6-1.6 0-2.8-.1-3.6-.6-.8-.5-1.4-1.2-1.7-2-.3-.8-.4-1.8-.3-3 .1-1.1.1-1.2.4-2.5.3-1.2.6-2.4.9-3.5.4-1.1.9-2.1 1.6-3 .7-.9 1.5-1.5 2.6-2.1 1-.5 2.3-.8 3.9-.8s2.9.2 3.8.7c.9.4 1.6 1.1 2.1 1.9.4.8.7 1.8.7 2.9 0 1.1-.3 2.3-.6 3.7v.2c0 .2-.1.3-.1.5l-1.7 8.1-.4 2c-.6 2.9-1.8 4.9-3.5 6.1-1.7 1.2-4 1.8-6.9 1.8-2.3 0-6.4-.8-8.3-1.3l-.7 3.4c1.2.3 3.8 1 4.9 1.1 1.1.1 2.2.2 3.4.2 4.4 0 7.9-1 10.4-2.9s4.1-4.6 4.9-8l5-23.5h-4.3zM195.2 106.9c-.1-1-.4-1.8-.9-2.6-.5-.7-1.3-1.3-2.3-1.7-1-.4-2.4-.6-4.1-.6-.8 0-1.6.1-2.5.2-.9.1-1.7.3-2.5.6-.2.1-.3.1-.5.2-1.3.5-2.6 1.4-3.7 2.3l3-14.1h-4.2l-7.3 34.7h4.2l3.2-15.3c.6-1.1 1.3-2.2 2-2.8.7-.7 1.4-1.2 2.2-1.5.8-.4 1.6-.6 2.4-.7.8-.1 1.6-.2 2.5-.2 1 0 1.9.1 2.5.4.6.3 1 .7 1.3 1.2.3.5.4 1.1.3 1.9 0 .8-.2 1.6-.4 2.6l-3 14.3h4.2l3.3-15.8c.2-1 .4-2.1.3-3.1zM207.2 122.6c-.4 0-1 .1-1.5.1-.8 0-1.4-.1-1.9-.2s-.8-.4-1-.7c-.2-.4-.3-.8-.2-1.5 0-.6.2-1.4.4-2.4l2.5-11.7h6.5l.2-1.2.6-3h-6.5l2.3-10.7h-4.2l-5.7 26.8c-.3 1.6-.5 3-.4 4 .1 1 .3 1.8.8 2.4.5.6 1.2 1 2.2 1.2.9.2 2.1.3 3.6.3.6 0 1.1 0 1.5-.1.5 0 .8-.1 1.3-.1l.7-3.4c-.4.2-.7.2-1.2.2z" fill="#3c3c3c"/><path fill="#235fa5" d="m10.4 89.1-7.8 37h7.6L16.1 98zM51.7 101.1l-5.3 25H54l7.1-34z"/><path d="m59.9 78.9-25.3 24.3c-.7.6-1.7.5-2.2-.3L23 88.3c-.4-.6-1-1-1.7-1h-9.4l.2.3 18.7 29.1c.3.5 1.1.6 1.6.2l39.7-38H59.9z" fill="#4696f5"/></svg>